<svg xmlns="http://www.w3.org/2000/svg" width="17.496" height="21.373" viewBox="0 0 17.496 21.373">
  <g id="cake" transform="translate(-42.56)">
    <g id="Group_822" data-name="Group 822" transform="translate(42.56)">
      <g id="Group_821" data-name="Group 821" transform="translate(0)">
        <path id="Path_4320" data-name="Path 4320" d="M193.836,5.829A1.944,1.944,0,0,0,195.5,2.885L193.836,0,192.17,2.885a1.944,1.944,0,0,0,1.666,2.944Z" transform="translate(-185.093)" fill="#0b6375"/>
        <path id="Path_4321" data-name="Path 4321" d="M57.132,151.276H52.275v-1.943H50.332v1.943H45.474a2.917,2.917,0,0,0-2.914,2.914v1.5a1.9,1.9,0,0,0,3.25,1.345l2.079-2.074,2.074,2.069a1.948,1.948,0,0,0,2.691,0l2.079-2.069,2.074,2.069a1.9,1.9,0,0,0,3.25-1.345V154.19A2.931,2.931,0,0,0,57.132,151.276Z" transform="translate(-42.56 -142.533)" fill="#0b6375"/>
        <path id="Path_4322" data-name="Path 4322" d="M55.767,319.124h0l-1.044-1.044-1.049,1.044a3.442,3.442,0,0,1-4.751,0l-1.044-1.044-1.049,1.044a3.293,3.293,0,0,1-2.366.986,3.354,3.354,0,0,1-1.9-.6V324a.974.974,0,0,0,.971.971H59.075a.974.974,0,0,0,.971-.971v-4.483a3.345,3.345,0,0,1-4.279-.389Z" transform="translate(-42.56 -303.595)" fill="#0b6375"/>
      </g>
    </g>
  </g>
</svg>
