<svg id="instagram-logo-white" xmlns="http://www.w3.org/2000/svg" width="22.1" height="22.1" viewBox="0 0 22.1 22.1">
  <path id="Path_4464" data-name="Path 4464" d="M18.863,0H3.237A3.241,3.241,0,0,0,0,3.237V18.863A3.241,3.241,0,0,0,3.237,22.1H18.863A3.241,3.241,0,0,0,22.1,18.863V3.237A3.241,3.241,0,0,0,18.863,0Zm-7.77,16.834a5.827,5.827,0,1,1,5.827-5.827A5.834,5.834,0,0,1,11.093,16.834ZM17.568,6.475A1.942,1.942,0,1,1,19.51,4.532,1.945,1.945,0,0,1,17.568,6.475Zm0,0" fill="#fff"/>
  <path id="Path_4465" data-name="Path 4465" d="M392.647,90a.647.647,0,1,0,.647.647A.648.648,0,0,0,392.647,90Zm0,0" transform="translate(-375.08 -86.115)" fill="#fff"/>
  <path id="Path_4466" data-name="Path 4466" d="M156.532,150a4.532,4.532,0,1,0,4.532,4.532A4.538,4.538,0,0,0,156.532,150Zm0,0" transform="translate(-145.439 -143.525)" fill="#fff"/>
</svg>
