<svg id="Group_19" data-name="Group 19" xmlns="http://www.w3.org/2000/svg" width="6.99" height="5.492" viewBox="0 0 6.99 5.492">
  <path id="Path_6" data-name="Path 6" d="M.671,56.513l.8.556q.667.462,1.022.712l.166.119q.127.092.211.148t.2.127a1.176,1.176,0,0,0,.224.105.618.618,0,0,0,.2.035H3.5a.618.618,0,0,0,.2-.035,1.178,1.178,0,0,0,.224-.105q.119-.07.2-.127t.211-.148L4.5,57.78l1.825-1.268a1.853,1.853,0,0,0,.476-.48,1.03,1.03,0,0,0,.191-.589.629.629,0,0,0-.624-.624H.624a.557.557,0,0,0-.462.2A.787.787,0,0,0,0,55.53a.911.911,0,0,0,.215.532A1.936,1.936,0,0,0,.671,56.513Z" transform="translate(0 -54.82)" fill="#fff"/>
  <path id="Path_7" data-name="Path 7" d="M6.6,184.776q-1.279.866-1.942,1.346-.222.164-.361.255a2.226,2.226,0,0,1-.369.187,1.122,1.122,0,0,1-.429.1H3.491a1.123,1.123,0,0,1-.429-.1,2.227,2.227,0,0,1-.369-.187q-.138-.092-.361-.255-.527-.386-1.939-1.346A2.066,2.066,0,0,1,0,184.437v3.1a.6.6,0,0,0,.183.441.6.6,0,0,0,.441.183H6.366a.626.626,0,0,0,.624-.624v-3.1A2.151,2.151,0,0,1,6.6,184.776Z" transform="translate(0 -182.666)" fill="#fff"/>
</svg>
