<svg id="twitter-logo-white" xmlns="http://www.w3.org/2000/svg" width="22.4" height="22.4" viewBox="0 0 22.4 22.4">
  <g id="Group_890" data-name="Group 890">
    <g id="Group_889" data-name="Group 889">
      <path id="Path_4463" data-name="Path 4463" d="M18.2,0H4.2A4.2,4.2,0,0,0,0,4.2v14a4.2,4.2,0,0,0,4.2,4.2h14a4.2,4.2,0,0,0,4.2-4.2V4.2A4.2,4.2,0,0,0,18.2,0ZM16.772,8.686l.008.357A7.842,7.842,0,0,1,4.708,15.649a5.671,5.671,0,0,0,.658.039,5.533,5.533,0,0,0,3.424-1.18,2.762,2.762,0,0,1-2.576-1.915,2.877,2.877,0,0,0,.519.048,2.757,2.757,0,0,0,.727-.1,2.76,2.76,0,0,1-2.212-2.7V9.807a2.754,2.754,0,0,0,1.249.346,2.762,2.762,0,0,1-.854-3.681,7.826,7.826,0,0,0,5.684,2.881,2.76,2.76,0,0,1,4.7-2.514,5.584,5.584,0,0,0,1.751-.669A2.765,2.765,0,0,1,16.566,7.7a5.528,5.528,0,0,0,1.583-.434A5.574,5.574,0,0,1,16.772,8.686Z" fill="#fff"/>
    </g>
  </g>
</svg>
