<svg xmlns="http://www.w3.org/2000/svg" width="17.922" height="17.176" viewBox="0 0 17.922 17.176">
  <g id="like-icon" transform="translate(0 -10.667)">
    <g id="Group_3567" data-name="Group 3567" transform="translate(0 18.135)">
      <g id="Group_3566" data-name="Group 3566">
        <path id="Path_8243" data-name="Path 8243" d="M1.867,224A1.87,1.87,0,0,0,0,225.867v5.974a1.869,1.869,0,0,0,1.867,1.867h2.24a1.854,1.854,0,0,0,1.12-.378V224Z" transform="translate(0 -224)"/>
      </g>
    </g>
    <g id="Group_3569" data-name="Group 3569" transform="translate(5.974 10.667)">
      <g id="Group_3568" data-name="Group 3568" transform="translate(0 0)">
        <path id="Path_8244" data-name="Path 8244" d="M182.615,20.935a1.656,1.656,0,0,0-.486-1.175,1.854,1.854,0,0,0,.478-1.426,1.93,1.93,0,0,0-1.948-1.693h-4.613a10.737,10.737,0,0,0,.594-2.987c0-1.62-1.376-2.987-2.24-2.987a2.349,2.349,0,0,0-1.354.455.375.375,0,0,0-.14.292v2.532l-2.151,4.659-.09.046v8a4.893,4.893,0,0,0,1.867.441h6.855a1.718,1.718,0,0,0,1.692-1.3,1.68,1.68,0,0,0-.135-1.122,1.673,1.673,0,0,0,.748-2.241A1.672,1.672,0,0,0,182.615,20.935Z" transform="translate(-170.667 -10.667)"/>
      </g>
    </g>
  </g>
</svg>
