<svg xmlns="http://www.w3.org/2000/svg" width="19" height="20.267" viewBox="0 0 19 20.267">
  <g id="share-icon" transform="translate(-157.571)">
    <g id="Group_3570" data-name="Group 3570" transform="translate(157.571)">
      <path id="Path_8245" data-name="Path 8245" d="M31.438,13.142A3.549,3.549,0,0,0,28.581,14.6l-5.615-2.875a3.361,3.361,0,0,0-.1-2.326L28.737,5.86a3.543,3.543,0,1,0-.862-2.3,3.53,3.53,0,0,0,.248,1.281L22.229,8.39a3.556,3.556,0,1,0,.224,4.4l5.6,2.866a3.514,3.514,0,0,0-.175,1.045,3.563,3.563,0,1,0,3.563-3.562Z" transform="translate(-16)"/>
    </g>
  </g>
</svg>
