<svg xmlns="http://www.w3.org/2000/svg" xmlns:xlink="http://www.w3.org/1999/xlink" width="21.716" height="24" viewBox="0 0 21.716 24">
  <g id="ballot" transform="translate(-2)">
    <path id="Path_8260" data-name="Path 8260" d="M20.27,8.12,15.5,3.288C12.963,4.149,4.061,4.6,6.093,11.566c0,.021.011.042.011.063H8.8a.582.582,0,0,1,.063-.169,3.263,3.263,0,0,1,2.664-1.649A3.385,3.385,0,0,1,14.519,11.4a.541.541,0,0,1-.042.677l-.529.529-3.542,3.542a1.418,1.418,0,0,0-.275,1.692,1.376,1.376,0,0,0,2.1.264l3.256-3.309,1.332-1.353Z" />
    <path id="Path_8261" data-name="Path 8261" d="M21.993,8.13c.357,0,.4-.248,1.565-1.353a.525.525,0,0,0,0-.751C17.5.055,17.733,0,17.31,0a.531.531,0,0,0-.37.159c-1.036,1.1-1.311,1.15-1.311,1.533,0,.309.229.427.359.592.1.062,5.523,5.585,5.624,5.688a.67.67,0,0,0,.381.158Z" />
    <path id="Path_8262" data-name="Path 8262" d="M9.71,15.56s3.01-3.05,3-3.06H2.5A.5.5,0,0,0,2,13V23.5a.5.5,0,0,0,.5.5H15.52a.5.5,0,0,0,.5-.5V15.6l-3.17,3.22a2.285,2.285,0,0,1-1.62.67,2.255,2.255,0,0,1-1.836-3.555,2.882,2.882,0,0,1,.316-.375Zm-.315.374A2.563,2.563,0,0,1,9.7,15.56,2.7,2.7,0,0,0,9.4,15.934Z" />
  </g>
</svg>
