<svg xmlns="http://www.w3.org/2000/svg" xmlns:xlink="http://www.w3.org/1999/xlink" width="21.294" height="18.063" viewBox="0 0 21.294 18.063">

  <g id="group" transform="translate(0 -38.84)">
    <g id="Group_3501" data-name="Group 3501" transform="translate(16.573 48.592)">
      <g id="Group_3500" data-name="Group 3500" transform="translate(0 0)">
        <path id="Path_8187" data-name="Path 8187" d="M400.141,273.32h-1.647a4.283,4.283,0,0,1,.26,1.472v6.224a1.836,1.836,0,0,1-.106.615h2.722a1.846,1.846,0,0,0,1.844-1.844v-3.393A3.077,3.077,0,0,0,400.141,273.32Z" transform="translate(-398.494 -273.32)" />
      </g>
    </g>
    <g id="Group_3503" data-name="Group 3503" transform="translate(0 48.592)">
      <g id="Group_3502" data-name="Group 3502" transform="translate(0 0)">
        <path id="Path_8188" data-name="Path 8188" d="M4.461,274.793a4.283,4.283,0,0,1,.26-1.472H3.074A3.077,3.077,0,0,0,0,276.395v3.393a1.846,1.846,0,0,0,1.844,1.844H4.567a1.836,1.836,0,0,1-.106-.615Z" transform="translate(0 -273.321)" />
      </g>
    </g>
    <g id="Group_3505" data-name="Group 3505" transform="translate(5.691 46.99)">
      <g id="Group_3504" data-name="Group 3504">
        <path id="Path_8189" data-name="Path 8189" d="M143.668,234.815H139.9a3.077,3.077,0,0,0-3.074,3.074v6.224a.615.615,0,0,0,.615.615h8.683a.615.615,0,0,0,.615-.615v-6.224A3.077,3.077,0,0,0,143.668,234.815Z" transform="translate(-136.829 -234.815)" />
      </g>
    </g>
    <g id="Group_3507" data-name="Group 3507" transform="translate(6.95 38.84)">
      <g id="Group_3506" data-name="Group 3506" transform="translate(0 0)">
        <path id="Path_8190" data-name="Path 8190" d="M170.811,38.84a3.7,3.7,0,1,0,3.7,3.7A3.7,3.7,0,0,0,170.811,38.84Z" transform="translate(-167.114 -38.84)" />
      </g>
    </g>
    <g id="Group_3509" data-name="Group 3509" transform="translate(1.391 42.286)">
      <g id="Group_3508" data-name="Group 3508">
        <path id="Path_8191" data-name="Path 8191" d="M36.208,121.689a2.763,2.763,0,1,0,2.765,2.765A2.768,2.768,0,0,0,36.208,121.689Z" transform="translate(-33.443 -121.689)" />
      </g>
    </g>
    <g id="Group_3511" data-name="Group 3511" transform="translate(14.373 42.286)">
      <g id="Group_3510" data-name="Group 3510">
        <path id="Path_8192" data-name="Path 8192" d="M348.372,121.689a2.765,2.765,0,1,0,2.765,2.765A2.768,2.768,0,0,0,348.372,121.689Z" transform="translate(-345.607 -121.689)" />
      </g>
    </g>
  </g>
</svg>
