<svg xmlns="http://www.w3.org/2000/svg" xmlns:xlink="http://www.w3.org/1999/xlink" width="15.498" height="20.208" viewBox="0 0 15.498 20.208">
  <g id="manifesto" transform="translate(-59.667)">
    <path id="Path_8267" data-name="Path 8267" d="M59.667,0V20.208h15.5V0Zm7.749,4.46a3.105,3.105,0,0,0-3.1,3.1V8.747H63.13V7.562a4.286,4.286,0,0,1,8.571,0V8.747H70.518V7.562a3.105,3.105,0,0,0-3.1-3.1Zm0,2.368a.734.734,0,0,0-.734.734V8.747H65.5V7.562a1.918,1.918,0,0,1,3.835,0V8.747H68.15V7.562A.734.734,0,0,0,67.416,6.828Zm4.289,3.6v1.184H63.127V10.433Zm0,2.526v1.184H63.127V12.959Zm-4.289,2.526v1.184H63.127V15.485Z"/>
  </g>
</svg>
