<svg id="businessman" xmlns="http://www.w3.org/2000/svg" xmlns:xlink="http://www.w3.org/1999/xlink" width="21.82" height="21.82" viewBox="0 0 21.82 21.82">
  <g id="Group_3590" data-name="Group 3590">
    <g id="Group_3589" data-name="Group 3589">
      <circle id="Ellipse_501" data-name="Ellipse 501" cx="5.951" cy="5.951" r="5.951" transform="translate(4.959)" />
      <path id="Path_8263" data-name="Path 8263" d="M19.38,279.569a21.966,21.966,0,0,0-4.217-1.637.494.494,0,0,0-.6.311l-2.033,5.671-.615-3.078.95-2.851a.5.5,0,0,0-.471-.653H9.422a.5.5,0,0,0-.471.653l.95,2.851-.615,3.078-2.033-5.671a.5.5,0,0,0-.6-.311,21.963,21.963,0,0,0-4.217,1.637A4.463,4.463,0,0,0,0,283.55v.726a1.986,1.986,0,0,0,1.984,1.984H19.837a1.986,1.986,0,0,0,1.984-1.984v-.726A4.463,4.463,0,0,0,19.38,279.569Z" transform="translate(0 -264.439)" />
    </g>
  </g>
</svg>
