<svg xmlns="http://www.w3.org/2000/svg" width="17.829" height="18.233" viewBox="0 0 17.829 18.233">
  <g id="calendar" transform="translate(-5.411)">
    <g id="Group_3610" data-name="Group 3610" transform="translate(5.411)">
      <path id="Path_8307" data-name="Path 8307" d="M119.307,258.655a.414.414,0,0,0-.414-.413h-1.444a.414.414,0,0,0-.414.413V260.1a.414.414,0,0,0,.414.414h1.444a.414.414,0,0,0,.414-.414v-1.444Z" transform="translate(-112.866 -248.596)"/>
      <path id="Path_8308" data-name="Path 8308" d="M215.941,258.655a.413.413,0,0,0-.413-.413h-1.444a.414.414,0,0,0-.414.413V260.1a.414.414,0,0,0,.414.414h1.444a.414.414,0,0,0,.413-.414Z" transform="translate(-205.891 -248.596)"/>
      <path id="Path_8309" data-name="Path 8309" d="M312.57,258.655a.414.414,0,0,0-.414-.413h-1.444a.414.414,0,0,0-.414.413V260.1a.414.414,0,0,0,.414.414h1.444a.414.414,0,0,0,.414-.414Z" transform="translate(-298.91 -248.596)"/>
      <path id="Path_8310" data-name="Path 8310" d="M119.307,355.289a.414.414,0,0,0-.414-.414h-1.444a.413.413,0,0,0-.414.414v1.444a.414.414,0,0,0,.414.414h1.444a.414.414,0,0,0,.414-.414v-1.444Z" transform="translate(-112.866 -341.62)"/>
      <path id="Path_8311" data-name="Path 8311" d="M215.941,355.289a.413.413,0,0,0-.413-.414h-1.444a.414.414,0,0,0-.414.414v1.444a.414.414,0,0,0,.414.414h1.444a.414.414,0,0,0,.413-.414Z" transform="translate(-205.891 -341.62)"/>
      <path id="Path_8312" data-name="Path 8312" d="M312.57,355.289a.413.413,0,0,0-.413-.414h-1.444a.414.414,0,0,0-.414.414v1.444a.414.414,0,0,0,.414.414h1.444a.414.414,0,0,0,.413-.414v-1.444Z" transform="translate(-298.91 -341.62)"/>
      <path id="Path_8313" data-name="Path 8313" d="M21.653,54.15v2.206a1.8,1.8,0,0,1-1.805,1.8H18.708a1.811,1.811,0,0,1-1.816-1.8V54.142H11.759v2.213a1.811,1.811,0,0,1-1.816,1.8H8.8A1.8,1.8,0,0,1,7,56.355V54.15a1.642,1.642,0,0,0-1.587,1.633V68.709a1.643,1.643,0,0,0,1.634,1.644h14.56a1.644,1.644,0,0,0,1.634-1.644V55.783A1.642,1.642,0,0,0,21.653,54.15ZM21.124,67.9a.707.707,0,0,1-.707.707H8.2A.707.707,0,0,1,7.5,67.9V61.227a.707.707,0,0,1,.707-.707H20.417a.707.707,0,0,1,.707.707V67.9Z" transform="translate(-5.411 -52.12)"/>
      <path id="Path_8314" data-name="Path 8314" d="M80.169,4.854H81.3a.619.619,0,0,0,.619-.619V.619A.619.619,0,0,0,81.3,0H80.169a.619.619,0,0,0-.619.619V4.235A.619.619,0,0,0,80.169,4.854Z" transform="translate(-76.781)"/>
      <path id="Path_8315" data-name="Path 8315" d="M345.077,4.854H346.2a.619.619,0,0,0,.619-.619V.619A.619.619,0,0,0,346.2,0h-1.127a.619.619,0,0,0-.619.619V4.235A.619.619,0,0,0,345.077,4.854Z" transform="translate(-331.794)"/>
    </g>
  </g>
</svg>
