<svg xmlns="http://www.w3.org/2000/svg" width="22.466" height="18.239" viewBox="0 0 22.466 18.239">
  <g id="cam-blue" transform="translate(0 -3.522)">
    <path id="Path_8292" data-name="Path 8292" d="M19.764,6.556H16.516V6.223a2.7,2.7,0,0,0-2.7-2.7H8.65a2.7,2.7,0,0,0-2.7,2.7v.334H2.7A2.7,2.7,0,0,0,0,9.257v9.8a2.7,2.7,0,0,0,2.7,2.7H19.765a2.7,2.7,0,0,0,2.7-2.7v-9.8A2.7,2.7,0,0,0,19.764,6.556Zm-8.532,12.4a5.1,5.1,0,1,1,5.1-5.1A5.106,5.106,0,0,1,11.232,18.959Zm2.7-5.1a2.7,2.7,0,1,1-2.7-2.7A2.705,2.705,0,0,1,13.932,13.858Z" fill="#0b6375"/>
  </g>
</svg>
