<svg xmlns="http://www.w3.org/2000/svg" width="23.107" height="13.576" viewBox="0 0 23.107 13.576">
  <g id="video-cam-blue" transform="translate(0 -96.512)">
    <g id="Group_3597" data-name="Group 3597" transform="translate(0 96.512)">
      <g id="Group_3596" data-name="Group 3596" transform="translate(0 0)">
        <path id="Path_8293" data-name="Path 8293" d="M13.071,96.512H2.528A2.536,2.536,0,0,0,0,99.04v8.52a2.536,2.536,0,0,0,2.528,2.528H13.071A2.536,2.536,0,0,0,15.6,107.56V99.04A2.519,2.519,0,0,0,13.071,96.512Z" transform="translate(0 -96.512)" fill="#0b6375"/>
      </g>
    </g>
    <g id="Group_3599" data-name="Group 3599" transform="translate(16.863 97.862)">
      <g id="Group_3598" data-name="Group 3598" transform="translate(0 0)">
        <path id="Path_8294" data-name="Path 8294" d="M345.878,123.888a1.288,1.288,0,0,0-.43.177L341.5,126.34v5.865l3.969,2.275a1.5,1.5,0,0,0,2.073-.556,1.544,1.544,0,0,0,.2-.758v-7.812A1.522,1.522,0,0,0,345.878,123.888Z" transform="translate(-341.504 -123.847)" fill="#0b6375"/>
      </g>
    </g>
  </g>
</svg>
