<svg xmlns="http://www.w3.org/2000/svg" width="17.617" height="15.109" viewBox="0 0 17.617 15.109">
  <g id="back-arrow" transform="translate(0 -31.842)">
    <g id="Group_3491" data-name="Group 3491" transform="translate(0 31.842)">
      <path id="Path_8181" data-name="Path 8181" d="M16.558,38.159a1.259,1.259,0,0,0-.218-.016H3.911l.271-.126a2.521,2.521,0,0,0,.712-.5L8.38,34.028a1.3,1.3,0,0,0,.183-1.67,1.26,1.26,0,0,0-1.891-.164l-6.3,6.3a1.26,1.26,0,0,0,0,1.783h0l6.3,6.3a1.261,1.261,0,0,0,1.891-.126,1.3,1.3,0,0,0-.183-1.67L4.9,41.294a2.521,2.521,0,0,0-.63-.46l-.378-.17H16.271a1.3,1.3,0,0,0,1.33-1.059A1.261,1.261,0,0,0,16.558,38.159Z" transform="translate(0 -31.842)"/>
    </g>
  </g>
</svg>
