<svg xmlns="http://www.w3.org/2000/svg" width="11.333" height="11.334" viewBox="0 0 11.333 11.334">
  <g id="call" transform="translate(-756 215)">
    <rect id="Rectangle_2612" data-name="Rectangle 2612" width="11" height="11" rx="5" transform="translate(756 -215)" fill="#fff"/>
    <path id="Path_8321" data-name="Path 8321" d="M10.713.623A2.046,2.046,0,0,0,9.212,0H2.128a2.047,2.047,0,0,0-1.5.623A2.047,2.047,0,0,0,0,2.125V9.208a2.047,2.047,0,0,0,.623,1.5,2.047,2.047,0,0,0,1.5.624H9.211a2.129,2.129,0,0,0,2.125-2.125V2.125A2.047,2.047,0,0,0,10.713.623ZM9.285,8.6a1.332,1.332,0,0,1-.7.59,2.341,2.341,0,0,1-.963.251,1.826,1.826,0,0,1-.251-.018q-.133-.019-.225-.037a2.406,2.406,0,0,1-.243-.066q-.151-.048-.218-.074l-.243-.092q-.177-.067-.221-.081a6.614,6.614,0,0,1-2.365-1.6,6.614,6.614,0,0,1-1.6-2.365q-.015-.044-.081-.221t-.092-.243q-.026-.066-.074-.218a2.426,2.426,0,0,1-.066-.244Q1.929,4.1,1.91,3.962a1.829,1.829,0,0,1-.018-.251,2.342,2.342,0,0,1,.251-.963,1.332,1.332,0,0,1,.59-.7,1.944,1.944,0,0,1,.745-.162A.343.343,0,0,1,3.6,1.9a.435.435,0,0,1,.122.133,3,3,0,0,1,.184.3q.1.181.2.35t.185.336q.089.166.111.21t.1.14a1.131,1.131,0,0,1,.111.184.375.375,0,0,1,.037.155.439.439,0,0,1-.151.269,2.517,2.517,0,0,1-.332.292,2.88,2.88,0,0,0-.332.284A.413.413,0,0,0,3.67,4.8a.36.36,0,0,0,.026.122,1.141,1.141,0,0,0,.048.114q.022.044.07.125t.063.1A5.636,5.636,0,0,0,4.81,6.527a5.632,5.632,0,0,0,1.258.933q.022.015.1.063c.054.032.1.055.125.07a1.122,1.122,0,0,0,.114.048.363.363,0,0,0,.122.026q.118,0,.325-.243t.421-.483q.214-.24.347-.24a.376.376,0,0,1,.155.037,1.134,1.134,0,0,1,.184.111c.069.049.116.081.14.1l.391.214q.391.207.653.365a.854.854,0,0,1,.284.218.346.346,0,0,1,.015.118A1.939,1.939,0,0,1,9.285,8.6Z" transform="translate(755.997 -215)" fill="#0b6375"/>
  </g>
</svg>
