<svg xmlns="http://www.w3.org/2000/svg" width="29.692" height="29.692" viewBox="0 0 29.692 29.692"><g transform="translate(-6 5.995)"><g transform="translate(6 -5.995)"><path d="M25.349,4.348a14.845,14.845,0,1,0,0,21.006A14.87,14.87,0,0,0,25.349,4.348ZM20.972,19.228a1.238,1.238,0,1,1-1.75,1.75L14.847,16.6l-4.374,4.375a1.238,1.238,0,1,1-1.75-1.75L13.1,14.851,8.721,10.475a1.238,1.238,0,0,1,1.75-1.75L14.846,13.1l4.375-4.375a1.238,1.238,0,1,1,1.75,1.75L16.6,14.851Z" transform="translate(0 -0.005)" fill="#111"/></g></g></svg>