<svg id="pdf_1_" data-name="pdf (1)" xmlns="http://www.w3.org/2000/svg" width="19.605" height="25.532" viewBox="0 0 19.605 25.532">
  <path id="Path_8171" data-name="Path 8171" d="M25.042,0H11.81c-.368,0-.667.3-.667.878v24.2a.687.687,0,0,0,.667.456H30.081a.687.687,0,0,0,.667-.456V5.917c0-.317-.042-.419-.117-.495L25.325.117A.4.4,0,0,0,25.042,0Z" transform="translate(-11.143)" fill="#e9e9e0"/>
  <path id="Path_8172" data-name="Path 8172" d="M64.286.259v5.4h5.4Z" transform="translate(-50.152 -0.19)" fill="#d9d7ca"/>
  <path id="Path_8173" data-name="Path 8173" d="M30.815,23.886h0a.732.732,0,0,1-.441-.149,1.093,1.093,0,0,1-.508-1.022c.083-.742,1-1.519,2.729-2.311a30.6,30.6,0,0,0,1.727-4.9c-.455-.99-.9-2.275-.575-3.029a.875.875,0,0,1,.517-.554,2.238,2.238,0,0,1,.463-.078c.23,0,.432.3.575.478s.44.535-.17,3.1a14.569,14.569,0,0,0,2.32,3.448,8.87,8.87,0,0,1,1.531-.163c.714,0,1.147.166,1.323.509a.923.923,0,0,1-.178.985,1.212,1.212,0,0,1-1.012.543A3.031,3.031,0,0,1,37.2,19.7a21.846,21.846,0,0,0-4.025,1.287,12.937,12.937,0,0,1-1.086,1.938C31.617,23.581,31.214,23.886,30.815,23.886Zm1.214-2.337c-.974.548-1.371,1-1.4,1.251,0,.042-.017.152.2.316C30.893,23.094,31.29,22.913,32.029,21.549Zm6.217-2.025c.372.286.462.43.705.43a.687.687,0,0,0,.552-.2.722.722,0,0,0,.1-.189c-.056-.03-.13-.09-.536-.09A6.666,6.666,0,0,0,38.247,19.524Zm-3.406-3a32.5,32.5,0,0,1-1.219,3.449,22.781,22.781,0,0,1,2.962-.921A15.606,15.606,0,0,1,34.841,16.523Zm-.277-3.858a1.093,1.093,0,0,0,.044,1.466C35.04,13.167,34.584,12.658,34.564,12.665Z" transform="translate(-24.882 -8.693)" fill="#cc4b4c"/>
  <path id="Path_8174" data-name="Path 8174" d="M30.081,74.608H11.81a.667.667,0,0,1-.667-.667V66.857h19.6v7.084A.667.667,0,0,1,30.081,74.608Z" transform="translate(-11.143 -49.076)" fill="#cc4b4c"/>
  <g id="Group_3473" data-name="Group 3473" transform="translate(4.215 19.57)">
    <path id="Path_8175" data-name="Path 8175" d="M27.738,78.178H26.99V73.584h1.321a1.855,1.855,0,0,1,.579.093,1.576,1.576,0,0,1,.514.28,1.464,1.464,0,0,1,.368.452,1.252,1.252,0,0,1,.14.6,1.629,1.629,0,0,1-.119.633,1.323,1.323,0,0,1-.331.477,1.489,1.489,0,0,1-.511.3,1.967,1.967,0,0,1-.661.106h-.555v1.658Zm0-4.027v1.82h.686a.815.815,0,0,0,.271-.047.683.683,0,0,0,.246-.153.747.747,0,0,0,.181-.3,1.4,1.4,0,0,0,.068-.471,1.273,1.273,0,0,0-.031-.259.746.746,0,0,0-.128-.28.755.755,0,0,0-.271-.224,1.008,1.008,0,0,0-.461-.09h-.561Z" transform="translate(-26.99 -73.584)" fill="#fff"/>
    <path id="Path_8176" data-name="Path 8176" d="M45,75.753a3.375,3.375,0,0,1-.122.969,2.41,2.41,0,0,1-.309.673,1.586,1.586,0,0,1-.421.427,2.111,2.111,0,0,1-.452.234,1.866,1.866,0,0,1-.4.1,2.654,2.654,0,0,1-.268.021H41.287V73.584h1.384a2.629,2.629,0,0,1,1.019.184,2.116,2.116,0,0,1,.729.489,2.008,2.008,0,0,1,.433.695A2.3,2.3,0,0,1,45,75.753Zm-2.219,1.876a1.238,1.238,0,0,0,1.1-.486,2.468,2.468,0,0,0,.336-1.409,2.386,2.386,0,0,0-.068-.567,1.213,1.213,0,0,0-.265-.508,1.4,1.4,0,0,0-.533-.368,2.3,2.3,0,0,0-.873-.14h-.436v3.478h.742Z" transform="translate(-37.484 -73.584)" fill="#fff"/>
    <path id="Path_8177" data-name="Path 8177" d="M60.071,74.151V75.6h1.92v.511h-1.92v2.069h-.76V73.584h2.873v.567Z" transform="translate(-50.715 -73.584)" fill="#fff"/>
  </g>
</svg>
