<svg xmlns="http://www.w3.org/2000/svg" width="23.005" height="23.005" viewBox="0 0 23.005 23.005">
  <g id="social-media" transform="translate(-3 -3)">
    <path id="Path_8219" data-name="Path 8219" d="M10.933,44.156V42.173a.4.4,0,0,1,.219-.355l.877-.438-.877-.438a.4.4,0,0,1-.219-.355V39.4a.4.4,0,0,0-.4-.4H3.4a.4.4,0,0,0-.4.4v4.76a.4.4,0,0,0,.4.4h7.14A.4.4,0,0,0,10.933,44.156Zm-.793-.4H3.793v-.793H10.14ZM4.587,42.173V41.38h4.76v.793Zm5.553-1.587H3.793v-.793H10.14Z" transform="translate(0 -21.721)" fill="#616161"/>
    <path id="Path_8220" data-name="Path 8220" d="M10.14,14.08,6.818,16.737a.4.4,0,0,1-.5,0L3,14.08v4.331h7.14Z" transform="translate(0 -6.685)" fill="#616161"/>
    <path id="Path_8221" data-name="Path 8221" d="M10.522,13H4.851l2.836,2.268Z" transform="translate(-1.117 -6.034)" fill="#616161"/>
    <path id="Path_8222" data-name="Path 8222" d="M26.977,3H19.044A1.987,1.987,0,0,0,17.1,4.587H28.92A1.987,1.987,0,0,0,26.977,3Z" transform="translate(-8.508)" fill="#616161"/>
    <path id="Path_8223" data-name="Path 8223" d="M20.173,51.4a1.191,1.191,0,0,1-1.19,1.19H17v.4a1.985,1.985,0,0,0,1.983,1.983h7.933A1.985,1.985,0,0,0,28.9,52.983V51H20.173Zm2.776.4a1.19,1.19,0,1,1-1.19,1.19A1.191,1.191,0,0,1,22.95,51.793Z" transform="translate(-8.447 -28.961)" fill="#616161"/>
    <circle id="Ellipse_498" data-name="Ellipse 498" cx="0.535" cy="0.535" r="0.535" transform="translate(13.7 23.865)" fill="#616161"/>
    <ellipse id="Ellipse_499" data-name="Ellipse 499" cx="1.605" cy="1.07" rx="1.605" ry="1.07" transform="translate(21.19 12.095)" fill="#616161"/>
    <path id="Path_8224" data-name="Path 8224" d="M50.156,20H46.19A1.191,1.191,0,0,0,45,21.19v3.966a1.191,1.191,0,0,0,1.19,1.19h3.966a1.191,1.191,0,0,0,1.19-1.19V21.19A1.191,1.191,0,0,0,50.156,20Zm-1.983,5.553a1.983,1.983,0,1,1,1.983-1.983A1.985,1.985,0,0,1,48.173,25.553Zm2.38-3.966H49.76v-.793h.793Z" transform="translate(-25.341 -10.257)" fill="#616161"/>
    <path id="Path_8225" data-name="Path 8225" d="M27.313,18.519V14.553A1.987,1.987,0,0,1,28.9,12.61V9H17v.793h1.983a.4.4,0,0,1,.4.4v5.553a.4.4,0,0,1-.4.4H17v3.966h1.983a1.191,1.191,0,0,1,1.19,1.19v.945l1.367.684a.4.4,0,0,1,0,.71l-1.367.683v.548H28.9v-4.4A1.987,1.987,0,0,1,27.313,18.519Z" transform="translate(-8.447 -3.62)" fill="#616161"/>
  </g>
</svg>
