<svg xmlns="http://www.w3.org/2000/svg" width="50" height="50" viewBox="0 0 50 50"><circle cx="25" cy="25" r="25" fill="#0b6375"/><g transform="translate(14.004 14.003)"><path d="M158.342,4.888a.909.909,0,0,1-.839.56H154.78v9.079a.908.908,0,0,1-1.816,0V5.448h-2.724A.908.908,0,0,1,149.6,3.9L153.23.267a.907.907,0,0,1,1.284,0L158.145,3.9A.908.908,0,0,1,158.342,4.888Zm0,0" transform="translate(-142.978 0)" fill="#fff"/><path d="M19.069,348.6H2.728A2.727,2.727,0,0,1,0,345.879v-3.631a.908.908,0,0,1,1.816,0v3.631a.909.909,0,0,0,.908.908H19.069a.909.909,0,0,0,.908-.908v-3.631a.908.908,0,0,1,1.816,0v3.631a2.727,2.727,0,0,1-2.724,2.724Zm0,0" transform="translate(-0.004 -326.814)" fill="#fff"/></g></svg>
