<svg xmlns="http://www.w3.org/2000/svg" xmlns:xlink="http://www.w3.org/1999/xlink" width="24.148" height="24.148" viewBox="0 0 24.148 24.148">
  <defs>
    <radialGradient id="radial-gradient" cx="0.205" cy="0.874" r="1.103" gradientTransform="translate(0)" gradientUnits="objectBoundingBox">
      <stop offset="0" stop-color="#fae100"/>
      <stop offset="0.054" stop-color="#fadc04"/>
      <stop offset="0.117" stop-color="#fbce0e"/>
      <stop offset="0.183" stop-color="#fcb720"/>
      <stop offset="0.251" stop-color="#fe9838"/>
      <stop offset="0.305" stop-color="#ff7950"/>
      <stop offset="0.492" stop-color="#ff1c74"/>
      <stop offset="1" stop-color="#6c1cd1"/>
    </radialGradient>
    <linearGradient id="linear-gradient" x1="0.369" y1="0.426" x2="-1.54" y2="-0.648" gradientUnits="objectBoundingBox">
      <stop offset="0" stop-color="#a1b5d8" stop-opacity="0"/>
      <stop offset="0.309" stop-color="#90a2bd" stop-opacity="0.31"/>
      <stop offset="0.755" stop-color="#7c8b9c" stop-opacity="0.757"/>
      <stop offset="1" stop-color="#748290"/>
    </linearGradient>
    <linearGradient id="linear-gradient-2" x1="0.5" y1="0.413" x2="0.5" y2="1.193" gradientUnits="objectBoundingBox">
      <stop offset="0" stop-color="#fae100" stop-opacity="0"/>
      <stop offset="0.307" stop-color="#fca800" stop-opacity="0.306"/>
      <stop offset="0.627" stop-color="#fe7300" stop-opacity="0.627"/>
      <stop offset="0.868" stop-color="#ff5200" stop-opacity="0.867"/>
      <stop offset="1" stop-color="#ff4500"/>
    </linearGradient>
    <linearGradient id="linear-gradient-3" x1="0.316" y1="0.311" x2="0.012" y2="0.005" gradientUnits="objectBoundingBox">
      <stop offset="0" stop-color="#833ab4" stop-opacity="0"/>
      <stop offset="1" stop-color="#833ab4"/>
    </linearGradient>
    <linearGradient id="linear-gradient-4" x1="0.582" y1="0.887" x2="0.418" y2="0.113" xlink:href="#linear-gradient-3"/>
    <linearGradient id="linear-gradient-5" x1="0.605" y1="0.605" x2="-0.16" y2="-0.16" xlink:href="#linear-gradient-3"/>
    <linearGradient id="linear-gradient-6" x1="0.376" y1="0.332" x2="-0.072" y2="-0.063" xlink:href="#linear-gradient-3"/>
    <linearGradient id="linear-gradient-7" x1="0.816" y1="0.182" x2="0.172" y2="0.835" gradientUnits="objectBoundingBox">
      <stop offset="0" stop-color="#833ab4"/>
      <stop offset="0.092" stop-color="#9c3495"/>
      <stop offset="0.293" stop-color="#dc2546"/>
      <stop offset="0.392" stop-color="#fd1d1d"/>
      <stop offset="0.559" stop-color="#fc6831"/>
      <stop offset="0.689" stop-color="#fc9b40"/>
      <stop offset="0.752" stop-color="#fcaf45"/>
      <stop offset="0.781" stop-color="#fdb750"/>
      <stop offset="0.866" stop-color="#fecb6a"/>
      <stop offset="0.942" stop-color="#ffd87a"/>
      <stop offset="1" stop-color="#ffdc80"/>
    </linearGradient>
  </defs>
  <g id="instagram" transform="translate(0.001)">
    <path id="Path_8295" data-name="Path 8295" d="M23.734,4.319A4.4,4.4,0,0,0,19.828.413a72.936,72.936,0,0,0-15.509,0A4.4,4.4,0,0,0,.413,4.319a72.936,72.936,0,0,0,0,15.509,4.4,4.4,0,0,0,3.906,3.906,72.938,72.938,0,0,0,15.51,0,4.4,4.4,0,0,0,3.906-3.906,72.936,72.936,0,0,0,0-15.509Zm0,0" fill="url(#radial-gradient)"/>
    <path id="Path_8296" data-name="Path 8296" d="M49.9,32.667A3.9,3.9,0,0,0,46.429,29.2a64.747,64.747,0,0,0-13.763,0A3.9,3.9,0,0,0,29.2,32.667a64.745,64.745,0,0,0,0,13.763A3.9,3.9,0,0,0,32.667,49.9a64.721,64.721,0,0,0,13.763,0A3.9,3.9,0,0,0,49.9,46.43a64.72,64.72,0,0,0,0-13.763Zm0,0" transform="translate(-27.474 -27.474)" fill="url(#linear-gradient)"/>
    <path id="Path_8297" data-name="Path 8297" d="M7.672,409.8q.025.25.052.5a4.4,4.4,0,0,0,3.906,3.906,72.935,72.935,0,0,0,15.509,0,4.4,4.4,0,0,0,3.906-3.906q.027-.25.052-.5Zm0,0" transform="translate(-7.311 -390.477)" fill="url(#linear-gradient-2)"/>
    <path id="Path_8298" data-name="Path 8298" d="M114.34,112.556a73,73,0,0,0,.411-8.334l-5.52-5.52a3.953,3.953,0,0,0-2.88-1.321c-2.434-.088-4.876-.083-7.31,0a3.906,3.906,0,0,0-3.8,3.426c-.064.353-.1.71-.153,1.065v5.855c.028.19.069.379.081.569a4.257,4.257,0,0,0,1.38,2.959l5.617,5.617a73,73,0,0,0,8.266-.412,4.4,4.4,0,0,0,3.906-3.906Zm0,0" transform="translate(-90.606 -92.728)" fill="url(#linear-gradient-3)"/>
    <path id="Path_8299" data-name="Path 8299" d="M144.034,140.616a4.4,4.4,0,0,1-3.906,3.906,73.04,73.04,0,0,1-8.266.412l-5.608-5.608a3.932,3.932,0,0,0,2.481.953c2.434.091,4.876.089,7.31,0a3.912,3.912,0,0,0,3.863-3.91c.073-2.337.073-4.68,0-7.018a4.074,4.074,0,0,0-.979-2.585l5.516,5.516a73.13,73.13,0,0,1-.411,8.334Zm0,0" transform="translate(-120.299 -120.787)" fill="url(#linear-gradient-4)"/>
    <path id="Path_8300" data-name="Path 8300" d="M180.709,175.246a3.867,3.867,0,1,0-5.464,5.464l8.949,8.949q.71-.062,1.421-.138a4.4,4.4,0,0,0,3.906-3.906q.076-.71.138-1.421Zm0,0" transform="translate(-165.786 -165.786)" fill="url(#linear-gradient-5)"/>
    <path id="Path_8301" data-name="Path 8301" d="M332.139,158.308l-7.2-7.2a.919.919,0,1,0-1.288,1.288l8.361,8.362Q332.1,159.532,332.139,158.308Zm0,0" transform="translate(-308.038 -143.632)" fill="url(#linear-gradient-6)"/>
    <path id="Path_8302" data-name="Path 8302" d="M95.09,101.872c.05-.355.089-.712.153-1.065a3.906,3.906,0,0,1,3.8-3.426c2.434-.084,4.876-.088,7.31,0a3.912,3.912,0,0,1,3.863,3.91q.11,3.506,0,7.018a3.911,3.911,0,0,1-3.863,3.91c-2.434.088-4.876.09-7.31,0a3.979,3.979,0,0,1-3.869-3.92c-.013-.191-.054-.38-.081-.569v-5.855Zm7.591,9.042c1.114,0,2.229.033,3.341-.008a2.718,2.718,0,0,0,2.858-2.848q.076-3.257,0-6.517a2.7,2.7,0,0,0-2.858-2.844q-3.319-.07-6.641,0a2.685,2.685,0,0,0-2.853,2.8q-.09,3.3,0,6.6a2.7,2.7,0,0,0,2.853,2.806c1.1.041,2.2.008,3.3.008Zm0,0" transform="translate(-90.605 -92.727)" fill="url(#linear-gradient-7)"/>
    <g id="Group_3602" data-name="Group 3602" transform="translate(4.484 4.59)">
      <path id="Path_8303" data-name="Path 8303" d="M95.09,101.872c.05-.355.089-.712.153-1.065a3.906,3.906,0,0,1,3.8-3.426c2.434-.084,4.876-.088,7.31,0a3.912,3.912,0,0,1,3.863,3.91q.11,3.506,0,7.018a3.911,3.911,0,0,1-3.863,3.91c-2.434.088-4.876.09-7.31,0a3.979,3.979,0,0,1-3.869-3.92c-.013-.191-.054-.38-.081-.569v-5.855Zm7.591,9.042c1.114,0,2.229.033,3.341-.008a2.718,2.718,0,0,0,2.858-2.848q.076-3.257,0-6.517a2.7,2.7,0,0,0-2.858-2.844q-3.319-.07-6.641,0a2.685,2.685,0,0,0-2.853,2.8q-.09,3.3,0,6.6a2.7,2.7,0,0,0,2.853,2.806c1.1.041,2.2.008,3.3.008Zm0,0" transform="translate(-95.09 -97.317)" fill="#fff"/>
      <path id="Path_8304" data-name="Path 8304" d="M177.86,174a3.868,3.868,0,1,0,3.868,3.868A3.868,3.868,0,0,0,177.86,174Zm0,6.4a2.536,2.536,0,1,1,2.536-2.536A2.536,2.536,0,0,1,177.86,180.4Zm0,0" transform="translate(-170.271 -170.38)" fill="#fff"/>
      <path id="Path_8305" data-name="Path 8305" d="M325.126,151.663a.92.92,0,1,1-.92-.92A.92.92,0,0,1,325.126,151.663Zm0,0" transform="translate(-312.523 -148.223)" fill="#fff"/>
    </g>
  </g>
</svg>
