<svg xmlns="http://www.w3.org/2000/svg" width="19.428" height="25.505" viewBox="0 0 19.428 25.505">
  <g id="history" transform="translate(-61)">
    <path id="Path_8156" data-name="Path 8156" d="M77.439,0H63.989a2.989,2.989,0,1,0,0,5.978h.374a1.121,1.121,0,1,0,0-2.242.747.747,0,0,1,0-1.494,2.614,2.614,0,0,1,2.362,3.736H74.7a2.614,2.614,0,0,1,2.362-3.736.747.747,0,1,1,0,1.494,1.121,1.121,0,1,0,0,2.242h.374a2.989,2.989,0,1,0,0-5.978Z" transform="translate(0)" fill="#616161"/>
    <path id="Path_8157" data-name="Path 8157" d="M121,150.747a1.494,1.494,0,0,0,1.494,1.494h10.461a1.494,1.494,0,0,0,1.494-1.494V150H121Z" transform="translate(-57.011 -142.528)" fill="#616161"/>
    <path id="Path_8158" data-name="Path 8158" d="M133.7,482H121.747a.747.747,0,1,0,0,1.494H133.7a.747.747,0,1,0,0-1.494Z" transform="translate(-57.011 -457.989)" fill="#616161"/>
    <path id="Path_8159" data-name="Path 8159" d="M151,225v11.308h10.461V225Zm4.11,9.44a.747.747,0,0,1-1.494,0v-7.572a.747.747,0,0,1,1.494,0Zm3.736,0a.747.747,0,0,1-1.494,0v-7.572a.747.747,0,0,1,1.494,0Z" transform="translate(-85.517 -213.792)" fill="#616161"/>
  </g>
</svg>
