<svg xmlns="http://www.w3.org/2000/svg" width="25.345" height="21.5" viewBox="0 0 25.345 21.5">
  <g id="people-icon" transform="translate(0 -38.84)">
    <g id="Group_3501" data-name="Group 3501" transform="translate(19.727 50.447)">
      <g id="Group_3500" data-name="Group 3500" transform="translate(0 0)">
        <path id="Path_8187" data-name="Path 8187" d="M400.454,273.32h-1.96a5.1,5.1,0,0,1,.309,1.753v7.408a2.184,2.184,0,0,1-.126.732h3.241a2.2,2.2,0,0,0,2.2-2.2v-4.038A3.663,3.663,0,0,0,400.454,273.32Z" transform="translate(-398.494 -273.32)" fill="#616161"/>
      </g>
    </g>
    <g id="Group_3503" data-name="Group 3503" transform="translate(0 50.447)">
      <g id="Group_3502" data-name="Group 3502" transform="translate(0 0)">
        <path id="Path_8188" data-name="Path 8188" d="M5.31,275.074a5.1,5.1,0,0,1,.309-1.753H3.659A3.663,3.663,0,0,0,0,276.98v4.039a2.2,2.2,0,0,0,2.2,2.2H5.436a2.185,2.185,0,0,1-.126-.732Z" transform="translate(0 -273.321)" fill="#616161"/>
      </g>
    </g>
    <g id="Group_3505" data-name="Group 3505" transform="translate(6.773 48.541)">
      <g id="Group_3504" data-name="Group 3504">
        <path id="Path_8189" data-name="Path 8189" d="M144.969,234.815h-4.481a3.663,3.663,0,0,0-3.659,3.659v7.408a.732.732,0,0,0,.732.732H147.9a.732.732,0,0,0,.732-.732v-7.408A3.663,3.663,0,0,0,144.969,234.815Z" transform="translate(-136.829 -234.815)" fill="#616161"/>
      </g>
    </g>
    <g id="Group_3507" data-name="Group 3507" transform="translate(8.273 38.84)">
      <g id="Group_3506" data-name="Group 3506" transform="translate(0 0)">
        <path id="Path_8190" data-name="Path 8190" d="M171.514,38.84a4.4,4.4,0,1,0,4.4,4.4A4.405,4.405,0,0,0,171.514,38.84Z" transform="translate(-167.114 -38.84)" fill="#616161"/>
      </g>
    </g>
    <g id="Group_3509" data-name="Group 3509" transform="translate(1.656 42.941)">
      <g id="Group_3508" data-name="Group 3508">
        <path id="Path_8191" data-name="Path 8191" d="M36.734,121.689a3.289,3.289,0,1,0,3.291,3.291A3.294,3.294,0,0,0,36.734,121.689Z" transform="translate(-33.443 -121.689)" fill="#616161"/>
      </g>
    </g>
    <g id="Group_3511" data-name="Group 3511" transform="translate(17.109 42.941)">
      <g id="Group_3510" data-name="Group 3510">
        <path id="Path_8192" data-name="Path 8192" d="M348.9,121.689a3.291,3.291,0,1,0,3.291,3.291A3.294,3.294,0,0,0,348.9,121.689Z" transform="translate(-345.607 -121.689)" fill="#616161"/>
      </g>
    </g>
  </g>
</svg>
