<svg id="twitter" xmlns="http://www.w3.org/2000/svg" width="32" height="32" viewBox="0 0 32 32">
  <path id="Path_8256" data-name="Path 8256" d="M16,0A16,16,0,1,1,0,16,16,16,0,0,1,16,0Z" fill="#26a6d1"/>
  <path id="Path_8257" data-name="Path 8257" d="M82.713,83.761a7.968,7.968,0,0,1-2.24.6,3.815,3.815,0,0,0,1.715-2.095,7.9,7.9,0,0,1-2.477.919,3.95,3.95,0,0,0-2.846-1.194,3.842,3.842,0,0,0-3.9,3.783,3.672,3.672,0,0,0,.1.863,11.184,11.184,0,0,1-8.036-3.954,3.676,3.676,0,0,0-.528,1.9,3.752,3.752,0,0,0,1.734,3.149,3.964,3.964,0,0,1-1.767-.474v.048A3.817,3.817,0,0,0,67.6,91.016a4.032,4.032,0,0,1-1.027.133,3.932,3.932,0,0,1-.733-.068,3.889,3.889,0,0,0,3.643,2.628,7.971,7.971,0,0,1-4.843,1.62,8.2,8.2,0,0,1-.931-.053,11.284,11.284,0,0,0,5.978,1.7A10.85,10.85,0,0,0,80.78,86.209l-.011-.49A7.781,7.781,0,0,0,82.713,83.761Z" transform="translate(-56.71 -72.982)" fill="#fff"/>
</svg>
