<svg xmlns="http://www.w3.org/2000/svg" width="22.853" height="22.855" viewBox="0 0 22.853 22.855">
  <path id="home" d="M22.239,9.94l0,0L12.914.616a2.1,2.1,0,0,0-2.976,0L.62,9.934l-.009.01a2.1,2.1,0,0,0,1.4,3.585q.032,0,.065,0h.372v6.861A2.465,2.465,0,0,0,4.91,22.854H8.558a.67.67,0,0,0,.67-.67V16.806a1.125,1.125,0,0,1,1.123-1.123H12.5a1.125,1.125,0,0,1,1.123,1.123v5.379a.67.67,0,0,0,.67.67h3.647a2.465,2.465,0,0,0,2.463-2.462V13.531h.345A2.1,2.1,0,0,0,22.239,9.94Zm0,0" transform="translate(0 0.001)" fill="#fe0002"/>
</svg>
