<svg xmlns="http://www.w3.org/2000/svg" xmlns:xlink="http://www.w3.org/1999/xlink" width="38" height="38" viewBox="0 0 38 38"><defs><filter id="a" x="-7.5" y="-2.5" width="53" height="53" filterUnits="userSpaceOnUse"><feOffset dy="5" input="SourceAlpha"/><feGaussianBlur stdDeviation="2.5" result="b"/><feFlood flood-opacity="0.051"/><feComposite operator="in" in2="b"/><feComposite in="SourceGraphic"/></filter><clipPath id="d"><rect width="38" height="38"/></clipPath></defs><g id="c" clip-path="url(#d)"><g transform="translate(-221 -729)"><g transform="matrix(1, 0, 0, 1, 221, 729)" filter="url(#a)"><g fill="#050c70" stroke="rgba(112,112,112,0.04)" stroke-width="1"><circle cx="19" cy="19" r="19" stroke="none"/><circle cx="19" cy="19" r="18.5" fill="none"/></g></g><g transform="translate(229.502 740.519)"><path d="M7.069,65.281c2.889,2.446,7.958,6.751,9.447,8.093a.88.88,0,0,0,1.273,0c1.491-1.343,6.56-5.648,9.449-8.094a.438.438,0,0,0,.062-.605A1.741,1.741,0,0,0,25.923,64H8.383a1.741,1.741,0,0,0-1.376.676A.438.438,0,0,0,7.069,65.281Z" transform="translate(-6.629 -64)" fill="#fff"/><path d="M20.794,126.452a.436.436,0,0,0-.468.063c-3.2,2.716-7.292,6.2-8.579,7.356a1.776,1.776,0,0,1-2.448,0c-1.371-1.235-5.963-5.139-8.578-7.355A.439.439,0,0,0,0,126.85v11.028a1.756,1.756,0,0,0,1.754,1.754h17.54a1.756,1.756,0,0,0,1.754-1.754V126.85A.438.438,0,0,0,20.794,126.452Z" transform="translate(0 -123.846)" fill="#fff"/></g></g></g></svg>