<svg xmlns="http://www.w3.org/2000/svg" xmlns:xlink="http://www.w3.org/1999/xlink" width="38" height="38" viewBox="0 0 38 38"><defs><filter id="a" x="-7.5" y="-2.5" width="53" height="53" filterUnits="userSpaceOnUse"><feOffset dy="5" input="SourceAlpha"/><feGaussianBlur stdDeviation="2.5" result="b"/><feFlood flood-opacity="0.051"/><feComposite operator="in" in2="b"/><feComposite in="SourceGraphic"/></filter><clipPath id="d"><rect width="38" height="38"/></clipPath></defs><g id="c" clip-path="url(#d)"><g transform="translate(-131 -691)"><g transform="matrix(1, 0, 0, 1, 131, 691)" filter="url(#a)"><g fill="#050c70" stroke="rgba(112,112,112,0.04)" stroke-width="1"><circle cx="19" cy="19" r="19" stroke="none"/><circle cx="19" cy="19" r="18.5" fill="none"/></g></g><g transform="translate(139 699)"><path d="M4.876,145.622,4.11,148.48l-2.8.059a11.019,11.019,0,0,1-.081-10.272h0l2.492.457L4.814,141.2a6.565,6.565,0,0,0,.062,4.42Z" transform="translate(0 -132.327)" fill="#fff"/><path d="M272.194,208.176a11,11,0,0,1-3.921,10.633h0l-3.139-.16-.444-2.773a6.556,6.556,0,0,0,2.821-3.348h-5.882v-4.352h10.566Z" transform="translate(-250.386 -199.231)" fill="#fff"/><path d="M47.084,315.692h0a11,11,0,0,1-16.575-3.365l3.565-2.918a6.542,6.542,0,0,0,9.427,3.35Z" transform="translate(-29.198 -296.114)" fill="#fff"/><path d="M45.415,2.532,41.852,5.45a6.541,6.541,0,0,0-9.644,3.425L28.625,5.941h0A11,11,0,0,1,45.415,2.532Z" transform="translate(-27.394)" fill="#fff"/></g></g></g></svg>